<svg width="212" height="43" viewBox="0 0 212 43" fill="none" xmlns="http://www.w3.org/2000/svg">
<path d="M13.3915 15.35V11H22.7815V15.35H13.3915ZM13.3915 23.57V19.49H22.4815V23.57H13.3915ZM10.0315 11H14.8915V32H10.0315V11ZM29.9736 32V27.83H40.5636V32H29.9736ZM29.9736 15.17V11H40.5636V15.17H29.9736ZM29.9736 23V18.92H39.9636V23H29.9736ZM26.6136 11H31.4736V32H26.6136V11ZM50.0897 21.29L48.8297 32H43.4897L46.8797 9.95L55.8197 22.76L64.7897 9.95L68.1797 32H62.8397L61.5797 21.29L55.8197 30.05L50.0897 21.29Z" fill="white"/>
<mask id="mask0_25_236" style="mask-type:luminance" maskUnits="userSpaceOnUse" x="9" y="7" width="61" height="26">
<path d="M70 7H9V33H70V7Z" fill="white"/>
<path d="M13.3915 15.35V11H22.7815V15.35H13.3915ZM13.3915 23.57V19.49H22.4815V23.57H13.3915ZM10.0315 11H14.8915V32H10.0315V11ZM29.9736 32V27.83H40.5636V32H29.9736ZM29.9736 15.17V11H40.5636V15.17H29.9736ZM29.9736 23V18.92H39.9636V23H29.9736ZM26.6136 11H31.4736V32H26.6136V11ZM50.0897 21.29L48.8297 32H43.4897L46.8797 9.95L55.8197 22.76L64.7897 9.95L68.1797 32H62.8397L61.5797 21.29L55.8197 30.05L50.0897 21.29Z" fill="black"/>
</mask>
<g mask="url(#mask0_25_236)">
<path d="M13.3915 15.35H12.3915V16.35H13.3915V15.35ZM13.3915 11V9.99999H12.3915V11H13.3915ZM22.7815 11H23.7815V9.99999H22.7815V11ZM22.7815 15.35V16.35H23.7815V15.35H22.7815ZM13.3915 23.57H12.3915V24.57H13.3915V23.57ZM13.3915 19.49V18.49H12.3915V19.49H13.3915ZM22.4815 19.49H23.4815V18.49H22.4815V19.49ZM22.4815 23.57V24.57H23.4815V23.57H22.4815ZM10.0315 11V9.99999H9.03152V11H10.0315ZM14.8915 11H15.8915V9.99999H14.8915V11ZM14.8915 32V33H15.8915V32H14.8915ZM10.0315 32H9.03152V33H10.0315V32ZM14.3915 15.35V11H12.3915V15.35H14.3915ZM13.3915 12H22.7815V9.99999H13.3915V12ZM21.7815 11V15.35H23.7815V11H21.7815ZM22.7815 14.35H13.3915V16.35H22.7815V14.35ZM14.3915 23.57V19.49H12.3915V23.57H14.3915ZM13.3915 20.49H22.4815V18.49H13.3915V20.49ZM21.4815 19.49V23.57H23.4815V19.49H21.4815ZM22.4815 22.57H13.3915V24.57H22.4815V22.57ZM10.0315 12H14.8915V9.99999H10.0315V12ZM13.8915 11V32H15.8915V11H13.8915ZM14.8915 31H10.0315V33H14.8915V31ZM11.0315 32V11H9.03152V32H11.0315ZM29.9736 32H28.9736V33H29.9736V32ZM29.9736 27.83V26.83H28.9736V27.83H29.9736ZM40.5636 27.83H41.5636V26.83H40.5636V27.83ZM40.5636 32V33H41.5636V32H40.5636ZM29.9736 15.17H28.9736V16.17H29.9736V15.17ZM29.9736 11V9.99999H28.9736V11H29.9736ZM40.5636 11H41.5636V9.99999H40.5636V11ZM40.5636 15.17V16.17H41.5636V15.17H40.5636ZM29.9736 23H28.9736V24H29.9736V23ZM29.9736 18.92V17.92H28.9736V18.92H29.9736ZM39.9636 18.92H40.9636V17.92H39.9636V18.92ZM39.9636 23V24H40.9636V23H39.9636ZM26.6136 11V9.99999H25.6136V11H26.6136ZM31.4736 11H32.4736V9.99999H31.4736V11ZM31.4736 32V33H32.4736V32H31.4736ZM26.6136 32H25.6136V33H26.6136V32ZM30.9736 32V27.83H28.9736V32H30.9736ZM29.9736 28.83H40.5636V26.83H29.9736V28.83ZM39.5636 27.83V32H41.5636V27.83H39.5636ZM40.5636 31H29.9736V33H40.5636V31ZM30.9736 15.17V11H28.9736V15.17H30.9736ZM29.9736 12H40.5636V9.99999H29.9736V12ZM39.5636 11V15.17H41.5636V11H39.5636ZM40.5636 14.17H29.9736V16.17H40.5636V14.17ZM30.9736 23V18.92H28.9736V23H30.9736ZM29.9736 19.92H39.9636V17.92H29.9736V19.92ZM38.9636 18.92V23H40.9636V18.92H38.9636ZM39.9636 22H29.9736V24H39.9636V22ZM26.6136 12H31.4736V9.99999H26.6136V12ZM30.4736 11V32H32.4736V11H30.4736ZM31.4736 31H26.6136V33H31.4736V31ZM27.6136 32V11H25.6136V32H27.6136ZM50.0897 21.29L50.9266 20.7426L49.4185 18.437L49.0966 21.1732L50.0897 21.29ZM48.8297 32V33H49.719L49.8229 32.1168L48.8297 32ZM43.4897 32L42.5013 31.848L42.3242 33H43.4897V32ZM46.8797 9.94999L47.6998 9.37769L46.2708 7.33009L45.8913 9.79803L46.8797 9.94999ZM55.8197 22.76L54.9997 23.3323L55.8184 24.5054L56.6389 23.3336L55.8197 22.76ZM64.7897 9.94999L65.7781 9.79803L65.3996 7.3357L63.9706 9.3764L64.7897 9.94999ZM68.1797 32V33H69.3452L69.1681 31.848L68.1797 32ZM62.8397 32L61.8466 32.1168L61.9505 33H62.8397V32ZM61.5797 21.29L62.5729 21.1732L62.2522 18.4472L60.7442 20.7406L61.5797 21.29ZM55.8197 30.05L54.9829 30.5974L55.8175 31.8735L56.6553 30.5994L55.8197 30.05ZM49.0966 21.1732L47.8366 31.8832L49.8229 32.1168L51.0829 21.4068L49.0966 21.1732ZM48.8297 31H43.4897V33H48.8297V31ZM44.4781 32.152L47.8681 10.102L45.8913 9.79803L42.5013 31.848L44.4781 32.152ZM46.0597 10.5223L54.9997 23.3323L56.6398 22.1877L47.6998 9.37769L46.0597 10.5223ZM56.6389 23.3336L65.6089 10.5236L63.9706 9.3764L55.0006 22.1864L56.6389 23.3336ZM63.8013 10.102L67.1913 32.152L69.1681 31.848L65.7781 9.79803L63.8013 10.102ZM68.1797 31H62.8397V33H68.1797V31ZM63.8329 31.8832L62.5729 21.1732L60.5866 21.4068L61.8466 32.1168L63.8329 31.8832ZM60.7442 20.7406L54.9842 29.5006L56.6553 30.5994L62.4153 21.8394L60.7442 20.7406ZM56.6566 29.5026L50.9266 20.7426L49.2529 21.8374L54.9829 30.5974L56.6566 29.5026Z" fill="#CDBBBB"/>
</g>
<path d="M80.5716 21.5C80.5716 22.74 80.8116 23.84 81.2916 24.8C81.7916 25.74 82.4816 26.48 83.3616 27.02C84.2616 27.56 85.3116 27.83 86.5116 27.83C87.6916 27.83 88.7216 27.56 89.6016 27.02C90.5016 26.48 91.1916 25.74 91.6716 24.8C92.1716 23.84 92.4216 22.74 92.4216 21.5C92.4216 20.26 92.1816 19.17 91.7016 18.23C91.2216 17.27 90.5416 16.52 89.6616 15.98C88.7816 15.44 87.7316 15.17 86.5116 15.17C85.3116 15.17 84.2616 15.44 83.3616 15.98C82.4816 16.52 81.7916 17.27 81.2916 18.23C80.8116 19.17 80.5716 20.26 80.5716 21.5ZM75.2016 21.5C75.2016 19.88 75.4816 18.4 76.0416 17.06C76.6216 15.72 77.4216 14.56 78.4416 13.58C79.4616 12.6 80.6616 11.85 82.0416 11.33C83.4216 10.79 84.9116 10.52 86.5116 10.52C88.1316 10.52 89.6216 10.79 90.9816 11.33C92.3616 11.85 93.5616 12.6 94.5816 13.58C95.6016 14.56 96.3916 15.72 96.9516 17.06C97.5116 18.4 97.7916 19.88 97.7916 21.5C97.7916 23.12 97.5116 24.61 96.9516 25.97C96.4116 27.33 95.6316 28.51 94.6116 29.51C93.6116 30.51 92.4216 31.29 91.0416 31.85C89.6616 32.39 88.1516 32.66 86.5116 32.66C84.8516 32.66 83.3316 32.39 81.9516 31.85C80.5716 31.29 79.3716 30.51 78.3516 29.51C77.3516 28.51 76.5716 27.33 76.0116 25.97C75.4716 24.61 75.2016 23.12 75.2016 21.5ZM108.922 23.54L114.052 11H119.992L108.922 33.32L97.8821 11H103.792L108.922 23.54ZM122.504 27.95L122.864 24.08H133.274L133.604 27.95H122.504ZM127.994 18.71L125.054 25.49L125.294 26.6L122.684 32H116.954L127.994 9.67999L139.064 32H133.304L130.784 26.81L130.964 25.52L127.994 18.71ZM137.056 15.53V11H153.676V15.53H147.886V32H142.816V15.53H137.056ZM155.972 11H161.132V32H155.972V11ZM169.751 21.5C169.751 22.74 169.991 23.84 170.471 24.8C170.971 25.74 171.661 26.48 172.541 27.02C173.441 27.56 174.491 27.83 175.691 27.83C176.871 27.83 177.901 27.56 178.781 27.02C179.681 26.48 180.371 25.74 180.851 24.8C181.351 23.84 181.601 22.74 181.601 21.5C181.601 20.26 181.361 19.17 180.881 18.23C180.401 17.27 179.721 16.52 178.841 15.98C177.961 15.44 176.911 15.17 175.691 15.17C174.491 15.17 173.441 15.44 172.541 15.98C171.661 16.52 170.971 17.27 170.471 18.23C169.991 19.17 169.751 20.26 169.751 21.5ZM164.381 21.5C164.381 19.88 164.661 18.4 165.221 17.06C165.801 15.72 166.601 14.56 167.621 13.58C168.641 12.6 169.841 11.85 171.221 11.33C172.601 10.79 174.091 10.52 175.691 10.52C177.311 10.52 178.801 10.79 180.161 11.33C181.541 11.85 182.741 12.6 183.761 13.58C184.781 14.56 185.571 15.72 186.131 17.06C186.691 18.4 186.971 19.88 186.971 21.5C186.971 23.12 186.691 24.61 186.131 25.97C185.591 27.33 184.811 28.51 183.791 29.51C182.791 30.51 181.601 31.29 180.221 31.85C178.841 32.39 177.331 32.66 175.691 32.66C174.031 32.66 172.511 32.39 171.131 31.85C169.751 31.29 168.551 30.51 167.531 29.51C166.531 28.51 165.751 27.33 165.191 25.97C164.651 24.61 164.381 23.12 164.381 21.5ZM204.71 11H209.6V33.05L195.08 20.18V32H190.22V9.94999L204.71 22.82V11Z" fill="#4D3C77"/>
</svg>
